<svg width="32" height="31" viewBox="0 0 32 31" fill="none" xmlns="http://www.w3.org/2000/svg">
<path d="M21.3333 2.5835C17.6533 2.5835 14.6666 5.47683 14.6666 9.04183C14.6666 12.6068 17.6533 15.5002 21.3333 15.5002C25.0133 15.5002 27.9999 12.6068 27.9999 9.04183C27.9999 5.47683 25.0133 2.5835 21.3333 2.5835ZM21.3333 12.9168C19.1199 12.9168 17.3333 11.186 17.3333 9.04183C17.3333 6.89766 19.1199 5.16683 21.3333 5.16683C23.5466 5.16683 25.3333 6.89766 25.3333 9.04183C25.3333 11.186 23.5466 12.9168 21.3333 12.9168ZM25.3333 20.6668H22.6666C22.6666 19.1168 21.6666 17.7218 20.1733 17.1793L11.9599 14.2085H1.33325V28.4168H9.33325V26.5568L18.6666 29.0627L29.3333 25.8335V24.5418C29.3333 22.3977 27.5466 20.6668 25.3333 20.6668ZM6.66659 25.8335H3.99992V16.7918H6.66659V25.8335ZM18.6266 26.3631L9.33325 23.896V16.7918H11.4799L19.2399 19.5947C19.6933 19.7627 19.9999 20.1889 19.9999 20.6668C19.9999 20.6668 17.3333 20.6022 16.9333 20.4731L13.7599 19.4527L12.9199 21.9068L16.0933 22.9272C16.7733 23.1468 17.4799 23.2502 18.1999 23.2502H25.3333C25.8533 23.2502 26.3199 23.5602 26.5333 23.9864L18.6266 26.3631Z" fill="black"/>
</svg>
