<svg width="40" height="38" viewBox="0 0 40 38" fill="none" xmlns="http://www.w3.org/2000/svg">
<path d="M20 16.0074C18.2833 16.0074 16.8833 17.3374 16.8833 18.9999C16.8833 20.5833 18.2833 21.9291 20 21.9291C21.7166 21.9291 23.1166 20.5833 23.1166 18.9999C23.1166 17.3374 21.7166 16.0074 20 16.0074ZM27.7166 31.6666C26.6666 32.2683 24.3666 31.3499 21.7166 28.9749C22.5833 28.0408 23.4333 27.0274 24.2333 25.9666C25.5763 25.8436 26.9114 25.6533 28.2333 25.3966C29.0833 28.7849 28.7666 31.1124 27.7166 31.6666ZM26.5333 22.5783L27.0166 21.7708C27.2 22.2299 27.3833 22.6891 27.5 23.1324C27.05 23.2274 26.55 23.3066 26.0333 23.3858L26.5333 22.5783ZM15.6333 21.3749L14.2833 18.9999L15.6333 16.6249C16.1333 15.7858 16.6666 15.0416 17.15 14.2974C18.05 14.2499 19 14.2499 20 14.2499C21 14.2499 21.95 14.2499 22.85 14.2974C23.3333 15.0416 23.8666 15.7858 24.3666 16.6249L25.7166 18.9999L24.3666 21.3749C23.8666 22.2141 23.3333 22.9583 22.85 23.7024C21.95 23.7499 21 23.7499 20 23.7499C19 23.7499 18.05 23.7499 17.15 23.7024C16.6666 22.9583 16.1333 22.2141 15.6333 21.3749ZM20 10.7349C20.3166 11.0833 20.65 11.4474 20.9833 11.8749H19.0166C19.35 11.4474 19.6833 11.0833 20 10.7349ZM20 27.2649C19.6833 26.9166 19.35 26.5524 19.0166 26.1249H20.9833C20.65 26.5524 20.3166 26.9166 20 27.2649ZM12.3 6.33325C13.3333 5.73158 15.6333 6.64992 18.2833 9.02492C17.4166 9.95908 16.5666 10.9724 15.7666 12.0333C14.4 12.1599 13.05 12.3499 11.7666 12.6033C10.9166 9.21492 11.2333 6.88742 12.3 6.33325ZM13.4666 15.4216L12.9833 16.2291C12.8 15.7699 12.6166 15.3108 12.5 14.8674C12.95 14.7724 13.45 14.6933 13.9666 14.6141L13.4666 15.4216ZM11.05 4.25908C8.59996 5.58908 8.33329 9.08825 9.36663 13.1733C5.13329 14.3608 2.08329 16.3241 2.08329 18.9999C2.08329 21.6758 5.13329 23.6391 9.36663 24.8266C8.33329 28.9116 8.59996 32.4108 11.05 33.7408C13.4833 35.0708 16.8 33.5508 20 30.6533C23.2 33.5508 26.5166 35.0708 28.9666 33.7408C31.4 32.4108 31.6666 28.9116 30.6333 24.8266C34.8666 23.6391 37.9166 21.6758 37.9166 18.9999C37.9166 16.3241 34.8666 14.3608 30.6333 13.1733C31.6666 9.08825 31.4 5.58908 28.9666 4.25908C26.5166 2.92908 23.2 4.44908 20 7.34658C16.8 4.44908 13.4833 2.92908 11.05 4.25908ZM11.5333 18.9999C10.9666 20.1874 10.4666 21.3749 10.05 22.5783C6.54996 21.5808 4.58329 20.1558 4.58329 18.9999C4.58329 17.8441 6.54996 16.4191 10.05 15.4216C10.4666 16.6249 10.9666 17.8124 11.5333 18.9999ZM28.4666 18.9999C29.0333 17.8124 29.5333 16.6249 29.95 15.4216C33.45 16.4191 35.4166 17.8441 35.4166 18.9999C35.4166 20.1558 33.45 21.5808 29.95 22.5783C29.5333 21.3749 29.0333 20.1874 28.4666 18.9999ZM13.4666 22.5783L13.9666 23.3858C13.45 23.3066 12.95 23.2274 12.5 23.1324C12.6166 22.6891 12.8 22.2299 12.9833 21.7708L13.4666 22.5783ZM18.2833 28.9749C15.6333 31.3499 13.3333 32.2683 12.3 31.6666C11.2333 31.1124 10.9166 28.7849 11.7666 25.3966C13.05 25.6499 14.4 25.8399 15.7666 25.9666C16.5666 27.0274 17.4166 28.0408 18.2833 28.9749ZM26.5333 15.4216L26.0333 14.6141C26.55 14.6933 27.05 14.7724 27.5 14.8674C27.3833 15.3108 27.2 15.7699 27.0166 16.2291L26.5333 15.4216ZM21.7166 9.02492C24.3666 6.64992 26.6666 5.73158 27.7166 6.33325C28.7666 6.88742 29.0833 9.21492 28.2333 12.6033C26.9114 12.3465 25.5763 12.1562 24.2333 12.0333C23.4333 10.9724 22.5833 9.95908 21.7166 9.02492Z" fill="black"/>
</svg>
