<svg width="36" height="32" viewBox="0 0 36 32" fill="none" xmlns="http://www.w3.org/2000/svg">
<path fill-rule="evenodd" clip-rule="evenodd" d="M13.0005 12.5558C12.4917 12.5558 11.9879 12.6449 11.5178 12.818C11.0478 12.9911 10.6206 13.2448 10.2609 13.5646C9.90108 13.8844 9.61569 14.264 9.42098 14.6819C9.22627 15.0997 9.12605 15.5476 9.12605 15.9998C9.12605 16.4521 9.22627 16.9 9.42098 17.3178C9.61569 17.7356 9.90108 18.1153 10.2609 18.4351C10.6206 18.7549 11.0478 19.0086 11.5178 19.1817C11.9879 19.3548 12.4917 19.4438 13.0005 19.4438H16.875V12.5558H13.0005ZM16.875 10.5558H13.0005C11.9728 10.5558 10.9871 10.1929 10.2603 9.54692C9.53358 8.90092 9.1253 8.02475 9.1253 7.11117C9.1253 6.19759 9.53358 5.32142 10.2603 4.67542C10.9871 4.02942 11.9728 3.6665 13.0005 3.6665H16.875V10.5558ZM19.125 3.6665V10.5558H22.9995C24.0141 10.5381 24.9804 10.1674 25.6909 9.52331C26.4013 8.87924 26.7993 8.01319 26.7993 7.11117C26.7993 6.20915 26.4013 5.3431 25.6909 4.69903C24.9804 4.05496 24.0141 3.68425 22.9995 3.6665H19.125ZM22.9995 12.5545C21.9825 12.5544 21.0062 12.9097 20.2814 13.5438C19.5565 14.1779 19.1412 15.0399 19.125 15.9438V16.0545C19.1375 16.7332 19.3752 17.3934 19.8084 17.9524C20.2416 18.5113 20.851 18.944 21.56 19.1961C22.269 19.4482 23.0459 19.5085 23.7933 19.3694C24.5407 19.2302 25.2252 18.8979 25.7607 18.4141C26.2963 17.9303 26.6591 17.3166 26.8036 16.6501C26.948 15.9836 26.8677 15.294 26.5727 14.6679C26.2777 14.0419 25.7811 13.5073 25.1454 13.1313C24.5097 12.7552 23.7631 12.5546 22.9995 12.5545ZM13.0005 21.4438C12.2339 21.4436 11.4844 21.6454 10.8467 22.0238C10.2091 22.4023 9.71212 22.9402 9.41852 23.5698C9.12493 24.1993 9.04796 24.8921 9.19734 25.5605C9.34673 26.2289 9.71576 26.8429 10.2578 27.3249C10.7998 27.8069 11.4904 28.1352 12.2423 28.2682C12.9942 28.4013 13.7736 28.3331 14.482 28.0724C15.1903 27.8116 15.7958 27.37 16.2217 26.8034C16.6477 26.2368 16.875 25.5707 16.875 24.8892V21.4438H13.0005Z" fill="black"/>
</svg>
