<svg width="44" height="42" viewBox="0 0 44 42" fill="none" xmlns="http://www.w3.org/2000/svg">
<path d="M13.75 22.75H30.25V21H13.75V22.75ZM30.25 27.125H13.75V25.375H30.25V27.125ZM13.75 31.5H30.25V29.75H13.75V31.5Z" fill="black"/>
<path fill-rule="evenodd" clip-rule="evenodd" d="M35.75 17.5C35.75 17.0359 35.5568 16.5908 35.213 16.2626C34.8692 15.9344 34.4029 15.75 33.9167 15.75H32.0833V14.875C32.0833 9.55938 27.5688 5.25 22 5.25C16.4313 5.25 11.9167 9.55938 11.9167 14.875V15.75H10.0833C9.5971 15.75 9.13079 15.9344 8.78697 16.2626C8.44315 16.5908 8.25 17.0359 8.25 17.5V35C8.25 35.4641 8.44315 35.9093 8.78697 36.2374C9.13079 36.5656 9.5971 36.75 10.0833 36.75H33.9167C34.4029 36.75 34.8692 36.5656 35.213 36.2374C35.5568 35.9093 35.75 35.4641 35.75 35V17.5ZM13.75 14.875C13.75 12.7864 14.6192 10.7834 16.1664 9.30653C17.7135 7.82968 19.812 7 22 7C24.188 7 26.2865 7.82968 27.8336 9.30653C29.3808 10.7834 30.25 12.7864 30.25 14.875V15.75H28.4167V14.875C28.4167 14.0707 28.2507 13.2742 27.9282 12.5311C27.6058 11.7879 27.1331 11.1127 26.5373 10.544C25.9414 9.97521 25.2341 9.52405 24.4556 9.21624C23.677 8.90843 22.8426 8.75 22 8.75C21.1574 8.75 20.323 8.90843 19.5444 9.21624C18.7659 9.52405 18.0586 9.97521 17.4627 10.544C16.8669 11.1127 16.3942 11.7879 16.0718 12.5311C15.7493 13.2742 15.5833 14.0707 15.5833 14.875V17.5H33.9167V35H10.0833V17.5H13.75V14.875ZM22 10.5C23.2156 10.5 24.3814 10.9609 25.2409 11.7814C26.1004 12.6019 26.5833 13.7147 26.5833 14.875V15.75H17.4167V14.875C17.4167 13.7147 17.8996 12.6019 18.7591 11.7814C19.6186 10.9609 20.7844 10.5 22 10.5Z" fill="black"/>
</svg>
