<svg width="57" height="57" viewBox="0 0 57 57" fill="none" xmlns="http://www.w3.org/2000/svg">
<path d="M28.5 4.75C41.6171 4.75 52.25 15.3829 52.25 28.5C52.25 41.6171 41.6171 52.25 28.5 52.25C15.3829 52.25 4.75 41.6171 4.75 28.5C4.75 15.3829 15.3829 4.75 28.5 4.75ZM28.5 9.5C23.4609 9.5 18.6282 11.5018 15.065 15.065C11.5018 18.6282 9.5 23.4609 9.5 28.5C9.5 33.5391 11.5018 38.3718 15.065 41.935C18.6282 45.4982 23.4609 47.5 28.5 47.5C33.5391 47.5 38.3718 45.4982 41.935 41.935C45.4982 38.3718 47.5 33.5391 47.5 28.5C47.5 23.4609 45.4982 18.6282 41.935 15.065C38.3718 11.5018 33.5391 9.5 28.5 9.5ZM28.5 14.25C29.0817 14.2501 29.6432 14.4636 30.0779 14.8502C30.5126 15.2368 30.7903 15.7694 30.8584 16.3471L30.875 16.625V27.5168L37.3041 33.9459C37.7301 34.3733 37.9774 34.9468 37.9958 35.5499C38.0142 36.153 37.8024 36.7406 37.4033 37.1932C37.0042 37.6458 36.4478 37.9295 35.8471 37.9867C35.2464 38.0439 34.6465 37.8704 34.1691 37.5013L33.9459 37.3041L26.8209 30.1791C26.4518 29.8097 26.2147 29.3289 26.1464 28.8111L26.125 28.5V16.625C26.125 15.9951 26.3752 15.391 26.8206 14.9456C27.266 14.5002 27.8701 14.25 28.5 14.25Z" fill="black"/>
</svg>
