<svg width="36" height="33" viewBox="0 0 36 33" fill="none" xmlns="http://www.w3.org/2000/svg">
<path d="M13.2772 12.9106C13.2772 12.9106 15.6997 19.1683 16.8502 20.2607C17.4056 20.7741 18.1593 21.0663 18.948 21.0741C19.7367 21.0819 20.497 20.8047 21.0644 20.3024C21.6318 19.8001 21.9605 19.1132 21.9795 18.3904C21.9984 17.6676 21.7061 16.967 21.1657 16.4403C20.0152 15.3471 13.2772 12.9106 13.2772 12.9106Z" stroke="black" stroke-width="2" stroke-linejoin="round"/>
<path d="M6.8625 26.7094C5.39802 25.37 4.23664 23.7786 3.44509 22.0265C2.65353 20.2745 2.24739 18.3963 2.25 16.5C2.25 8.52638 9.3015 2.0625 18 2.0625C26.6985 2.0625 33.75 8.52638 33.75 16.5C33.75 20.4868 31.9875 24.0962 29.1375 26.7094M18 2.75V5.5M6.86625 7.66013L9.19725 9.39056M4.1085 18.7227L7.03125 18.1039M31.8922 18.7227L28.9688 18.1039M29.1338 7.66013L26.8028 9.39056" stroke="black" stroke-width="2" stroke-linecap="round" stroke-linejoin="round"/>
</svg>
