<svg width="44" height="37" viewBox="0 0 44 37" fill="none" xmlns="http://www.w3.org/2000/svg">
<path d="M5.5 16.9585H11C11.9725 16.9585 12.9051 17.2833 13.5927 17.8616C14.2804 18.4398 14.6667 19.2241 14.6667 20.0418V24.6668C14.6667 25.4846 14.2804 26.2688 13.5927 26.8471C12.9051 27.4253 11.9725 27.7502 11 27.7502H9.16667C8.19421 27.7502 7.26158 27.4253 6.57394 26.8471C5.88631 26.2688 5.5 25.4846 5.5 24.6668V16.9585ZM5.5 16.9585C5.5 15.1364 5.92678 13.3322 6.75599 11.6488C7.58519 9.96537 8.80057 8.4358 10.3327 7.14739C11.8649 5.85898 13.6839 4.83695 15.6857 4.13967C17.6876 3.44238 19.8332 3.0835 22 3.0835C24.1668 3.0835 26.3124 3.44238 28.3143 4.13967C30.3161 4.83695 32.1351 5.85898 33.6673 7.14739C35.1994 8.4358 36.4148 9.96537 37.244 11.6488C38.0732 13.3322 38.5 15.1364 38.5 16.9585M38.5 16.9585V24.6668C38.5 25.4846 38.1137 26.2688 37.4261 26.8471C36.7384 27.4253 35.8058 27.7502 34.8333 27.7502H33C32.0275 27.7502 31.0949 27.4253 30.4073 26.8471C29.7196 26.2688 29.3333 25.4846 29.3333 24.6668V20.0418C29.3333 19.2241 29.7196 18.4398 30.4073 17.8616C31.0949 17.2833 32.0275 16.9585 33 16.9585H38.5Z" stroke="black" stroke-width="2" stroke-linecap="round" stroke-linejoin="round"/>
<path d="M38.5 24.667V27.7503C38.5 29.3858 37.7274 30.9543 36.3521 32.1108C34.9768 33.2673 33.1116 33.917 31.1667 33.917H22" stroke="black" stroke-width="2" stroke-linecap="round" stroke-linejoin="round"/>
</svg>
